HIERARCHY
ROOT Hips
{
	OFFSET 0.00000 0.00000 0.00000
	CHANNELS 6 Xposition Yposition Zposition Zrotation Yrotation Xrotation 
	JOINT LHipJoint
	{
		OFFSET 0 0 0
		CHANNELS 3 Zrotation Yrotation Xrotation
		JOINT LeftHip
		{
			OFFSET 1.53794 -1.55850 0.93568
			CHANNELS 3 Zrotation Yrotation Xrotation
			JOINT LeftKnee
			{
				OFFSET 2.28545 -6.27922 0.00000
				CHANNELS 3 Zrotation Yrotation Xrotation
				JOINT LeftAnkle
				{
					OFFSET 2.37329 -6.52057 0.00000
					CHANNELS 3 Zrotation Yrotation Xrotation
					JOINT LeftToe
					{
						OFFSET 0.14846 -0.40788 2.09160
						CHANNELS 3 Zrotation Yrotation Xrotation
						End Site
						{
							OFFSET 0.00000 -0.00000 1.07536
						}
					}
				}
			}
		}
	}
	JOINT RHipJoint
	{
		OFFSET 0 0 0
		CHANNELS 3 Zrotation Yrotation Xrotation
		JOINT RightHip
		{
			OFFSET -1.78290 -1.55850 0.93568
			CHANNELS 3 Zrotation Yrotation Xrotation
			JOINT RightKnee
			{
				OFFSET -2.24144 -6.15831 0.00000
				CHANNELS 3 Zrotation Yrotation Xrotation
				JOINT RightAnkle
				{
					OFFSET -2.35091 -6.45907 0.00000
					CHANNELS 3 Zrotation Yrotation Xrotation
					JOINT RightToe
					{
						OFFSET -0.14428 -0.39641 2.07944
						CHANNELS 3 Zrotation Yrotation Xrotation
						End Site
						{
							OFFSET -0.00000 -0.00000 1.06864
						}
					}
				}
			}
		}
	}
	JOINT lowerback
	{
		OFFSET 0 0 0
		CHANNELS 3 Zrotation Yrotation Xrotation
		JOINT Chest
		{
			OFFSET -0.08841 2.11430 -0.15818
			CHANNELS 3 Zrotation Yrotation Xrotation
			JOINT Chest2
			{
				OFFSET -0.00033 2.12605 -0.08097
				CHANNELS 3 Zrotation Yrotation Xrotation
				JOINT lowerneck
				{
					OFFSET 0 0 0
					CHANNELS 3 Zrotation Yrotation Xrotation
					JOINT Neck
					{
						OFFSET 0.04431 1.59447 0.43193
						CHANNELS 3 Zrotation Yrotation Xrotation
						JOINT Head
						{
							OFFSET 0.00455 1.62017 -0.58852
							CHANNELS 3 Zrotation Yrotation Xrotation
							End Site
							{
								OFFSET -0.00920 1.72955 -0.25850
							}
						}
					}
				}
				JOINT LeftCollar
				{
					OFFSET 0 0 0
					CHANNELS 3 Zrotation Yrotation Xrotation
					JOINT LeftShoulder
					{
						OFFSET 2.86490 1.49927 -0.33774
CHANNELS 3 Zrotation Xrotation Yrotation
						JOINT LeftElbow
						{
OFFSET 0 -4.874080 0.000000
CHANNELS 3 Zrotation Xrotation Yrotation
							JOINT LeftWrist
							{
OFFSET 0 -2.767290 0.000000
CHANNELS 3 Zrotation Xrotation Yrotation
								JOINT lhand
								{
									OFFSET 0 0 0
CHANNELS 3 Zrotation Xrotation Yrotation
									JOINT LFingers
									{
OFFSET 0 -0.989220 0.000000
CHANNELS 3 Zrotation Xrotation Yrotation
										End Site
										{
OFFSET 0 -0.797530 0.000000
										}
									}
								}
								JOINT LThumb
								{
OFFSET 0 0.000000 0.000000
CHANNELS 3 Zrotation Xrotation Yrotation
									End Site
									{
OFFSET 0 -0.809720 0.809720
									}
								}
							}
						}
					}
				}
				JOINT RightCollar
				{
					OFFSET 0 0 0
					CHANNELS 3 Zrotation Yrotation Xrotation
					JOINT RightShoulder
					{
						OFFSET -2.94414 1.45463 -0.25291
CHANNELS 3 Zrotation Xrotation Yrotation
						JOINT RightElbow
						{
OFFSET 0 -4.714040 0.000000
CHANNELS 3 Zrotation Xrotation Yrotation
							JOINT RightWrist
							{
OFFSET 0 -2.834680 0.000000
CHANNELS 3 Zrotation Xrotation Yrotation
								JOINT rhand
								{
									OFFSET 0 0 0
CHANNELS 3 Zrotation Xrotation Yrotation
									JOINT RFingers
									{
OFFSET 0 -0.868200 0.000000
CHANNELS 3 Zrotation Xrotation Yrotation
										End Site
										{
OFFSET 0 -0.699960 0.000000
										}
									}
								}
								JOINT RThumb
								{
OFFSET 0 0.000000 0.000000
CHANNELS 3 Zrotation Xrotation Yrotation
									End Site
									{
OFFSET 0 -0.710650 0.710650
									}
								}
							}
						}
					}
				}
			}
		}
	}
}
MOTION
Frames: 9
Frame Time: 0.008333333333333333
2.514943 9.137728 4.640691 -189.032105 -11.836784 -163.733240 0.000000 0.000000 0.000000 -9.440855 -0.755542 -68.631436 35.231484 13.118268 140.187183 -0.009087 4.564562 2.863093 0.098964 -2.027552 -5.581937 0.000000 0.000000 0.000000 -4.480006 18.645082 -103.567719 -30.855962 -16.899497 123.412976 -1.564521 -16.008777 -34.012742 -0.101379 2.052849 -5.651707 2.205471 1.235509 43.642836 5.338141 -3.718597 16.232047 6.002018 -4.366720 -2.009772 1.834818 0.249023 -31.726556 3.542724 -1.929495 24.857307 0.717934 -0.162096 13.724396 0.000000 0.000000 0.000000 17.029988 -48.787254 -29.730150 22.997125 -34.085562 7.136695 1.593352 35.632586 -12.600793 0.000000 0.000000 0.000000 -7.125000 0.000000 0.000000 -22.650245 41.430491 -2.116428 0.000000 0.000000 0.000000 -18.171780 -50.777031 19.832952 -18.208443 -28.423200 -4.648082 -26.399191 44.751246 10.075310 0.000000 0.000000 0.000000 7.125000 0.000000 0.000000 0.547951 41.199137 0.051270
2.524002 9.206204 4.533014 -189.175950 -11.636975 -163.413933 0.000000 0.000000 0.000000 -9.132594 -0.895365 -69.239982 35.192253 13.164019 140.014471 0.025874 3.100474 3.369925 0.131182 -2.331493 -6.422814 0.000000 0.000000 0.000000 -4.261876 18.775023 -102.905587 -30.803756 -16.932336 123.233559 -1.625542 -16.048640 -34.394252 -0.123834 2.267601 -6.245861 2.358015 1.185337 43.580689 5.243195 -3.746115 16.299564 5.822498 -4.368041 -1.919317 1.876168 0.228179 -32.171828 3.476441 -1.964356 24.908100 0.680680 -0.173844 13.828799 0.000000 0.000000 0.000000 17.117353 -49.077447 -29.823575 22.712446 -33.772772 6.977854 1.484272 35.408573 -12.598804 0.000000 0.000000 0.000000 -7.125000 0.000000 0.000000 -22.740956 41.418258 -2.133232 0.000000 0.000000 0.000000 -18.125331 -50.990001 19.419205 -17.778330 -27.871970 -4.445305 -26.573057 45.031281 9.601372 0.000000 0.000000 0.000000 7.125000 0.000000 0.000000 0.353933 40.689829 0.037440
2.532063 9.270932 4.427238 -189.296444 -11.433224 -163.149242 0.000000 0.000000 0.000000 -8.811215 -0.871800 -69.945061 35.187694 13.169258 139.994640 0.027600 2.129773 3.075985 0.176948 -2.705238 -7.459320 0.000000 0.000000 0.000000 -4.007228 18.900673 -102.215955 -30.755142 -16.962724 123.066913 -1.702472 -16.031484 -34.809842 -0.147123 2.470540 -6.807974 2.355259 1.162412 43.558394 5.221864 -3.793784 16.325336 5.814948 -4.391963 -1.881282 1.818040 0.245994 -32.396164 3.377353 -1.876402 24.929315 0.670164 -0.151457 13.876903 0.000000 0.000000 0.000000 17.099424 -49.211385 -29.707336 22.461806 -33.494842 6.839055 1.390502 35.223205 -12.587509 0.000000 0.000000 0.000000 -7.125000 0.000000 0.000000 -22.815513 41.398974 -2.152707 0.000000 0.000000 0.000000 -18.211507 -51.151274 19.376295 -17.318155 -27.274669 -4.232513 -26.749452 45.401029 9.224670 0.000000 0.000000 0.000000 7.125000 0.000000 0.000000 0.168893 40.287234 0.019467
2.538807 9.331495 4.323684 -189.410509 -11.228242 -162.936175 0.000000 0.000000 0.000000 -8.528502 -0.760072 -70.727404 35.214174 13.138408 140.111005 0.008000 1.997604 1.927078 0.227495 -3.067342 -8.466412 0.000000 0.000000 0.000000 -3.726816 19.002942 -101.502819 -30.714233 -16.988117 122.926824 -1.782323 -16.008299 -35.229726 -0.172486 2.673674 -7.371581 2.224425 1.165848 43.566230 5.256690 -3.856873 16.325223 5.943009 -4.434841 -1.876104 1.678023 0.286764 -32.451779 3.253693 -1.699395 24.915080 0.680401 -0.105726 13.876828 0.000000 0.000000 0.000000 16.992244 -49.234657 -29.409938 22.228232 -33.233884 6.710595 1.345595 35.209012 -12.509360 0.000000 0.000000 0.000000 -7.125000 0.000000 0.000000 -22.826099 41.322636 -2.199620 0.000000 0.000000 0.000000 -18.405252 -51.270652 19.600201 -16.842222 -26.648506 -4.016775 -26.864860 45.894281 8.949387 0.000000 0.000000 0.000000 7.125000 0.000000 0.000000 0.047311 39.991080 0.005782
2.543827 9.387859 4.222195 -189.535773 -11.024669 -162.768496 0.000000 0.000000 0.000000 -8.342788 -0.684503 -71.570710 35.257882 13.087260 140.303787 -0.023295 2.919918 0.134460 0.262187 -3.293590 -9.097191 0.000000 0.000000 0.000000 -3.444167 19.066259 -100.771130 -30.684170 -17.006739 122.823840 -1.862296 -15.990390 -35.648724 -0.202768 2.897324 -7.993123 2.053005 1.185118 43.593866 5.292993 -3.916607 16.320535 6.093717 -4.479095 -1.881060 1.530265 0.330713 -32.433574 3.134247 -1.514215 24.890509 0.694668 -0.057943 13.858461 0.000000 0.000000 0.000000 16.850363 -49.231354 -29.062247 22.001405 -32.978452 6.586722 1.377744 35.411963 -12.339777 0.000000 0.000000 0.000000 -7.125000 0.000000 0.000000 -22.740876 41.169320 -2.282022 0.000000 0.000000 0.000000 -18.671020 -51.343773 19.905381 -16.381435 -26.034314 -3.812271 -26.877801 46.449655 8.776756 0.000000 0.000000 0.000000 7.125000 0.000000 0.000000 0.023837 39.799911 0.003083
2.547445 9.439685 4.122464 -189.668280 -10.818200 -162.639885 0.000000 0.000000 0.000000 -8.272497 -0.723853 -72.483996 35.300509 13.037148 140.492291 -0.078844 4.891400 -1.985107 0.272940 -3.360459 -9.284019 0.000000 0.000000 0.000000 -3.172986 19.102810 -100.031193 -30.666571 -17.017561 122.763745 -1.941916 -15.970263 -36.058290 -0.238010 3.137712 -8.662611 1.920614 1.218954 43.634271 5.288842 -3.947392 16.332643 6.169855 -4.505967 -1.874982 1.420229 0.352006 -32.415221 3.056498 -1.394670 24.847546 0.705826 -0.028799 13.833891 0.000000 0.000000 0.000000 16.706182 -49.283833 -28.799009 21.784967 -32.732994 6.469291 1.464189 35.718291 -12.107302 0.000000 0.000000 0.000000 -7.125000 0.000000 0.000000 -22.589664 40.962897 -2.387399 0.000000 0.000000 0.000000 -18.962073 -51.370967 20.121793 -15.958992 -25.464398 -3.628663 -26.773408 47.008365 8.709105 0.000000 0.000000 0.000000 7.125000 0.000000 0.000000 0.110509 39.715602 0.014420
2.550058 9.486327 4.024276 -189.799561 -10.608216 -162.542830 0.000000 0.000000 0.000000 -8.308061 -0.946201 -73.485602 35.325595 13.007491 140.603434 -0.189433 7.700145 -4.178947 0.270197 -3.343526 -9.236646 0.000000 0.000000 0.000000 -2.924740 19.126112 -99.299286 -30.661783 -17.020478 122.747511 -2.029118 -15.906366 -36.465698 -0.275035 3.371929 -9.316085 1.821082 1.275197 43.680880 5.254126 -3.939735 16.359346 6.181436 -4.511289 -1.859163 1.341022 0.346494 -32.414473 3.019657 -1.344174 24.806124 0.714203 -0.020042 13.814958 0.000000 0.000000 0.000000 16.555193 -49.394383 -28.634080 21.576819 -32.495307 6.357098 1.602148 36.132077 -11.830949 0.000000 0.000000 0.000000 -7.125000 0.000000 0.000000 -22.382105 40.720273 -2.505338 0.000000 0.000000 0.000000 -19.256118 -51.348884 20.237298 -15.583107 -24.951707 -3.468446 -26.591683 47.471067 8.721949 0.000000 0.000000 0.000000 7.125000 0.000000 0.000000 0.270427 39.714562 0.035198
2.552142 9.526907 3.927504 -189.911928 -10.406521 -162.474125 0.000000 0.000000 0.000000 -8.403789 -1.412244 -74.617471 35.321165 13.012718 140.583833 -0.379375 10.975735 -6.296541 0.261488 -3.289585 -9.085952 0.000000 0.000000 0.000000 -2.689839 19.142597 -98.590314 -30.671777 -17.014350 122.781438 -2.137138 -15.738659 -36.891241 -0.308539 3.570305 -9.870770 1.697676 1.351357 43.731703 5.226914 -3.909780 16.373509 6.206604 -4.505832 -1.860090 1.250363 0.334627 -32.329193 3.003763 -1.303425 24.753709 0.730182 -0.014832 13.776021 0.000000 0.000000 0.000000 16.375031 -49.479623 -28.491284 21.394811 -32.286199 6.259548 1.764542 36.573928 -11.560021 0.000000 0.000000 0.000000 -7.125000 0.000000 0.000000 -22.157527 40.484282 -2.614426 0.000000 0.000000 0.000000 -19.512692 -51.247709 20.411351 -15.266197 -24.515339 -3.335709 -26.374468 47.691776 8.787314 0.000000 0.000000 0.000000 7.125000 0.000000 0.000000 0.465265 39.768801 0.059911
2.554135 9.560964 3.831915 -189.986399 -10.213058 -162.443928 0.000000 0.000000 0.000000 -8.503646 -2.124291 -75.885693 35.279939 13.061445 140.401155 -0.642801 14.282189 -8.321482 0.255613 -3.252798 -8.983435 0.000000 0.000000 0.000000 -2.440127 19.176805 -97.894335 -30.695279 -16.999904 122.861928 -2.249426 -15.536240 -37.306461 -0.341636 3.755466 -10.389710 1.573037 1.448535 43.795582 5.213373 -3.859935 16.395516 6.239991 -4.494247 -1.856877 1.160073 0.320984 -32.246915 2.975871 -1.259245 24.677075 0.741855 -0.009795 13.727158 0.000000 0.000000 0.000000 16.171624 -49.577641 -28.372102 21.252720 -32.122165 6.183777 1.960343 36.957285 -11.353205 0.000000 0.000000 0.000000 -7.125000 0.000000 0.000000 -21.927726 40.310133 -2.684331 0.000000 0.000000 0.000000 -19.709592 -51.113049 20.571940 -14.996961 -24.141827 -3.224743 -26.202950 47.763318 8.854519 0.000000 0.000000 0.000000 7.125000 0.000000 0.000000 0.620490 39.828761 0.079031
